<svg xmlns="http://www.w3.org/2000/svg" width="68" height="68" viewBox="0 0 68 68" fill="none"><circle opacity="0.46" cx="34" cy="34" r="34" fill="#C4CACF"></circle><g clip-path="url(#clip0_169_6)"><mask id="mask0_169_6" style="mask-type:luminance" maskUnits="userSpaceOnUse" x="16" y="16" width="36" height="36"><path d="M16 16H52V52H16V16Z" fill="white"></path></mask><g mask="url(#mask0_169_6)"><path d="M41.5 46H23.5C22.675 46 22 45.325 22 44.5V26.5C22 25.675 21.325 25 20.5 25C19.675 25 19 25.675 19 26.5V46C19 47.65 20.35 49 22 49H41.5C42.325 49 43 48.325 43 47.5C43 46.675 42.325 46 41.5 46ZM46 19H28C26.35 19 25 20.35 25 22V40C25 41.65 26.35 43 28 43H46C47.65 43 49 41.65 49 40V22C49 20.35 47.65 19 46 19ZM46 34L42.25 31.75L38.5 34V22H46V34Z" fill="#4C6789"></path></g></g><defs><clipPath id="clip0_169_6"><rect width="36" height="36" fill="white" transform="translate(16 16)"></rect></clipPath></defs></svg>