<svg xmlns="http://www.w3.org/2000/svg" width="68" height="68" viewBox="0 0 68 68" fill="none"><circle opacity="0.46" cx="34" cy="34" r="34" fill="#C4CACF"></circle><path d="M45.2971 26.2023C46.0921 24.824 45.7593 23.2489 44.7336 22.314C41.8136 19.6474 37.9561 18.1797 34 18.1797C30.0439 18.1797 26.1864 19.6474 23.2664 22.314C22.2407 23.2489 21.9079 24.824 22.7029 26.2024C21.1009 28.5015 20.2188 31.1667 20.2188 34C20.2188 38.9027 20.2188 42.5555 20.2188 46.6562C20.2188 48.401 21.6381 49.8203 23.3828 49.8203C25.1275 49.8203 26.5469 48.401 26.5469 46.6562V38.2188C26.5469 36.474 25.1275 35.0547 23.3828 35.0547C23.0113 35.0547 22.6596 35.1308 22.3281 35.249V34C22.3281 31.6669 23.0395 29.4708 24.3246 27.562C25.4051 27.9541 26.673 27.7558 27.6056 26.92C31.087 23.8095 36.913 23.8085 40.3943 26.9211C41.2494 27.6845 42.4508 28.0075 43.6763 27.5635C44.9607 29.472 45.6719 31.6674 45.6719 34V35.249C45.3404 35.1308 44.9887 35.0547 44.6172 35.0547C42.8725 35.0547 41.4531 36.474 41.4531 38.2188V46.6562C41.4531 48.401 42.8725 49.8203 44.6172 49.8203C46.3619 49.8203 47.7812 48.401 47.7812 46.6562C47.7812 42.7232 47.7812 37.9262 47.7812 34C47.7812 31.1667 46.8991 28.5015 45.2971 26.2023Z" fill="#4C6789"></path><path d="M38.1703 37.0734C37.3752 36.0541 36.2895 35.4084 35.0547 35.1695V34C35.0547 33.417 34.583 32.9453 34 32.9453C33.417 32.9453 32.9453 33.417 32.9453 34V41.5771C32.6138 41.4589 32.2622 41.3828 31.8906 41.3828C30.1459 41.3828 28.7266 42.8021 28.7266 44.5469C28.7266 46.2916 30.1459 47.7109 31.8906 47.7109C33.6354 47.7109 35.0547 46.2916 35.0547 44.5469V37.3475C35.7345 37.5785 36.213 37.9928 36.508 38.3712C37.2856 39.3672 37.5431 40.7916 37.196 42.1821C37.0539 42.7465 37.3979 43.3191 37.9633 43.4603C38.0488 43.4819 38.1353 43.4922 38.2197 43.4922C38.6925 43.4922 39.122 43.1729 39.2414 42.6929C39.7451 40.6784 39.3454 38.5772 38.1703 37.0734Z" fill="#4C6789"></path><path d="M16 42.4374C16 44.1533 16.8364 45.6656 18.1094 46.6292V38.2456C16.8364 39.2092 16 40.7215 16 42.4374Z" fill="#4C6789"></path><path d="M49.8906 38.2456V46.6293C51.1636 45.6657 52 44.1534 52 42.4375C52 40.7216 51.1636 39.2092 49.8906 38.2456Z" fill="#4C6789"></path></svg>