<svg xmlns="http://www.w3.org/2000/svg" width="68" height="68" viewBox="0 0 68 68" fill="none"><circle opacity="0.46" cx="34" cy="34" r="34" fill="#C4CACF"></circle><path d="M19.1094 16C17.9463 16 17 16.9463 17 18.1094V24.4375H21.2188V18.1094C21.2188 16.9463 20.2725 16 19.1094 16Z" fill="#4C6789"></path><path d="M29.6562 49.8906C29.6562 50.6588 29.4489 51.379 29.0887 52H46.5547C47.7178 52 48.6641 51.0538 48.6641 49.8906V45.6719H29.6562V49.8906Z" fill="#4C6789"></path><path d="M44.4102 43.5625V38.2458C43.2264 39.0596 41.8816 39.5098 40.5692 39.5098C39.6409 39.5098 38.7737 39.2751 38.0433 38.8381L35.7371 41.1442C35.5311 41.3502 35.2611 41.4532 34.9914 41.4532C34.7214 41.4532 34.4515 41.3503 34.2455 41.1442C33.8337 40.7324 33.8337 40.0647 34.2455 39.6527L36.5488 37.3495C35.9885 36.4219 35.7701 35.2865 35.9302 34.0586C36.1292 32.5334 36.8993 31.0328 38.0988 29.8334C39.8873 28.0449 42.1381 26.3457 44.4102 24.8441V19.1641C44.4102 17.4194 42.9907 16 41.2461 16H22.7606C23.1208 16.621 23.3281 17.3412 23.3281 18.1094V49.8906C23.3281 51.0538 24.2744 52 25.4375 52C26.6006 52 27.5469 51.0538 27.5469 49.8906V45.6719C27.5469 44.5069 28.4913 43.5625 29.6562 43.5625H44.4102ZM28.6016 22.3281H39.1484C39.7309 22.3281 40.2031 22.8003 40.2031 23.3828C40.2031 23.9653 39.7309 24.4375 39.1484 24.4375H28.6016C28.0191 24.4375 27.5469 23.9653 27.5469 23.3828C27.5469 22.8003 28.0191 22.3281 28.6016 22.3281ZM26.8789 26.5469H36.3359C36.9184 26.5469 37.3906 27.0191 37.3906 27.6016C37.3906 28.184 36.9184 28.6562 36.3359 28.6562H26.8789C26.2964 28.6562 25.8242 28.184 25.8242 27.6016C25.8242 27.0191 26.2964 26.5469 26.8789 26.5469ZM26.8789 30.7656H32.1172C32.6997 30.7656 33.1719 31.2378 33.1719 31.8203C33.1719 32.4028 32.6997 32.875 32.1172 32.875H26.8789C26.2964 32.875 25.8242 32.4028 25.8242 31.8203C25.8242 31.2378 26.2964 30.7656 26.8789 30.7656ZM26.8789 37.0938C26.2964 37.0938 25.8242 36.6215 25.8242 36.0391C25.8242 35.4566 26.2964 34.9844 26.8789 34.9844H32.1172C32.6997 34.9844 33.1719 35.4566 33.1719 36.0391C33.1719 36.6215 32.6997 37.0938 32.1172 37.0938H26.8789Z" fill="#4C6789"></path><path d="M39.6244 37.2569C39.9626 37.3673 40.2956 37.4003 40.5693 37.4003C41.7558 37.4003 43.0627 36.8018 44.0651 35.7994C47.1541 32.7103 50.9343 26.1088 53 22.3042C49.4143 24.1511 43.338 27.5772 39.5904 31.3248C38.7181 32.1971 38.1611 33.2649 38.0219 34.3314C37.9536 34.8542 37.9938 35.34 38.1334 35.7649L41.0073 32.8909C41.4192 32.479 42.087 32.479 42.4988 32.8909C42.9107 33.3028 42.9107 33.9707 42.4988 34.3825L39.6244 37.2569Z" fill="#4C6789"></path></svg>