<svg xmlns="http://www.w3.org/2000/svg" width="68" height="68" viewBox="0 0 68 68" fill="none"><circle opacity="0.46" cx="34" cy="34" r="34" fill="#C4CACF"></circle><g clip-path="url(#clip0_169_9)"><path d="M27.2407 16.6172L21.1474 22.7098H27.2407V16.6172Z" fill="#4C6789"></path><path d="M29.3882 28.7884V38.1611C29.3882 40.5405 31.3239 42.4762 33.7032 42.4762H45.8743V48.8359C45.8743 49.4181 45.4018 49.8906 44.8196 49.8906H26.7521L29.2503 46.8095C29.9732 45.918 30.1215 44.672 29.6272 43.6363C29.1913 42.723 28.3145 42.0944 27.3266 41.9594V37.9157C27.3266 36.2648 25.9836 34.9225 24.3334 34.9225H20.5295V24.8193H28.2948C28.877 24.8193 29.3495 24.3468 29.3495 23.7646V16H44.8196C45.4018 16 45.8743 16.4725 45.8743 17.0547V24.4734H33.7032C31.3239 24.4734 29.3882 26.4091 29.3882 28.7884Z" fill="#4C6789"></path><path d="M37.1437 32.2498C37.1437 32.7286 36.7239 33.1336 36.2282 33.1336C36.0292 33.1336 35.6861 33.135 35.3718 33.1371C35.3676 32.2146 35.3704 32.5739 35.3669 31.3652H36.2282C36.7239 31.3652 37.1437 31.7702 37.1437 32.2498Z" fill="#4C6789"></path><path d="M41.8828 31.3652H40.994C40.9954 32.0563 40.9968 33.0646 40.9968 33.4682C40.9968 33.9485 40.9997 34.9146 41.0018 35.5804C41.3357 35.5783 41.707 35.5755 41.9172 35.572C42.9768 35.553 43.4514 34.5053 43.4514 33.4746C43.4514 32.455 43.0394 31.3652 41.8828 31.3652ZM41.8828 31.3652H40.994C40.9954 32.0563 40.9968 33.0646 40.9968 33.4682C40.9968 33.9485 40.9997 34.9146 41.0018 35.5804C41.3357 35.5783 41.707 35.5755 41.9172 35.572C42.9768 35.553 43.4514 34.5053 43.4514 33.4746C43.4514 32.455 43.0394 31.3652 41.8828 31.3652ZM49.7936 26.5825H33.7033C32.4869 26.5825 31.4976 27.5718 31.4976 28.7882V38.1609C31.4976 39.3773 32.4869 40.3666 33.7033 40.3666H49.7936C51.01 40.3666 52 39.3773 52 38.1609V28.7882C52 27.5718 51.01 26.5825 49.7936 26.5825ZM36.2282 34.5398C36.0286 34.5398 35.6812 34.5412 35.3648 34.5433V36.2871C35.3648 36.6752 35.0505 36.9902 34.6617 36.9902C34.2736 36.9902 33.9586 36.6752 33.9586 36.2871V30.6621C33.9586 30.2796 34.2693 29.9589 34.6617 29.9589H36.2282C37.5079 29.9589 38.55 30.9862 38.55 32.2497C38.55 33.5125 37.5079 34.5398 36.2282 34.5398ZM41.9418 36.9775C41.4876 36.9853 40.3521 36.9902 40.3036 36.9902C39.9295 36.9902 39.5864 36.7075 39.5864 36.1956V30.6677C39.5864 30.6656 39.5864 30.6635 39.5864 30.6635C39.5857 30.2746 39.9007 29.9589 40.2895 29.9589H41.8828C43.6617 29.9589 44.8577 31.3715 44.8577 33.4746C44.8577 35.4749 43.6307 36.948 41.9418 36.9775ZM48.6546 32.718C49.0427 32.718 49.3577 33.033 49.3577 33.4211C49.3577 33.8092 49.0427 34.1242 48.6546 34.1242H47.2589V36.2871C47.2589 36.6752 46.9446 36.9902 46.5557 36.9902C46.1676 36.9902 45.8526 36.6752 45.8526 36.2871V30.6621C45.8526 30.2739 46.1676 29.9589 46.5557 29.9589H48.836C49.2241 29.9589 49.5391 30.2739 49.5391 30.6621C49.5391 31.0502 49.2241 31.3652 48.836 31.3652H47.2589V32.718H48.6546ZM41.8828 31.3652H40.994C40.9954 32.0563 40.9968 33.0646 40.9968 33.4682C40.9968 33.9485 40.9997 34.9146 41.0018 35.5804C41.3357 35.5783 41.707 35.5755 41.9172 35.572C42.9768 35.553 43.4514 34.5053 43.4514 33.4746C43.4514 32.455 43.0394 31.3652 41.8828 31.3652Z" fill="#4C6789"></path><path d="M27.6119 45.4811L22.5913 51.673C22.4234 51.8798 22.1712 51.9999 21.9049 51.9999C21.638 51.9999 21.3859 51.8798 21.218 51.673L16.1973 45.4811C15.9829 45.2166 15.9393 44.8519 16.0859 44.5444C16.2326 44.2369 16.5431 44.0413 16.8836 44.0413H18.5922V37.9154C18.5922 37.4276 18.9875 37.0317 19.4759 37.0317H24.3333C24.8217 37.0317 25.217 37.4277 25.217 37.9154V44.0413H26.9255C27.2661 44.0413 27.5766 44.2369 27.7232 44.5444C27.87 44.8519 27.8264 45.2166 27.6119 45.4811Z" fill="#4C6789"></path></g><defs><clipPath id="clip0_169_9"><rect width="36" height="36" fill="white" transform="translate(16 16)"></rect></clipPath></defs></svg>