<svg xmlns="http://www.w3.org/2000/svg" width="68" height="68" viewBox="0 0 68 68" fill="none"><circle opacity="0.46" cx="34" cy="34" r="34" fill="#C4CACF"></circle><path fill-rule="evenodd" clip-rule="evenodd" d="M24.4375 28.4C21.4345 28.4 19 30.8176 19 33.8V44.6C19 47.5824 21.4345 50 24.4375 50H42.5625C45.5656 50 48 47.5824 48 44.6V33.8C48 30.8176 45.5656 28.4 42.5625 28.4V23C42.5625 18.0294 38.505 14 33.5 14C28.4949 14 24.4375 18.0294 24.4375 23V24.8C24.4375 25.7941 25.249 26.6 26.25 26.6C27.251 26.6 28.0625 25.7941 28.0625 24.8V23C28.0625 20.0177 30.4969 17.6 33.5 17.6C36.5031 17.6 38.9375 20.0177 38.9375 23V28.4H24.4375ZM35.3125 40.5183C36.396 39.8959 37.125 38.7325 37.125 37.4C37.125 35.4117 35.5021 33.8 33.5 33.8C31.4979 33.8 29.875 35.4117 29.875 37.4C29.875 38.7325 30.604 39.8959 31.6875 40.5183V42.8C31.6875 43.7941 32.499 44.6 33.5 44.6C34.501 44.6 35.3125 43.7941 35.3125 42.8V40.5183Z" fill="#4C6789"></path></svg>