<svg xmlns="http://www.w3.org/2000/svg" width="68" height="68" viewBox="0 0 68 68" fill="none"><circle opacity="0.46" cx="34" cy="34" r="34" fill="#C4CACF"></circle><path d="M26.375 45.25C23.9735 45.25 21.8375 43.7125 21.062 41.4235L21.0095 41.2509C20.8265 40.6449 20.75 40.135 20.75 39.625V29.3979L17.111 41.545C16.643 43.3315 17.7095 45.184 19.499 45.6775L42.6935 51.889C42.983 51.964 43.2725 52 43.5575 52C45.0515 52 46.4165 51.0085 46.799 49.5475L48.1505 45.25H26.375Z" fill="#4C6789"></path><path d="M30.5 29.5C32.1545 29.5 33.5 28.1545 33.5 26.5C33.5 24.8455 32.1545 23.5 30.5 23.5C28.8455 23.5 27.5 24.8455 27.5 26.5C27.5 28.1545 28.8455 29.5 30.5 29.5Z" fill="#4C6789"></path><path d="M49.25 19H26.75C24.683 19 23 20.683 23 22.75V39.25C23 41.317 24.683 43 26.75 43H49.25C51.317 43 53 41.317 53 39.25V22.75C53 20.683 51.317 19 49.25 19ZM26.75 22H49.25C49.664 22 50 22.336 50 22.75V33.3985L45.2615 27.8695C44.759 27.28 44.0315 26.965 43.25 26.947C42.473 26.9515 41.744 27.2965 41.246 27.8935L35.675 34.5805L33.86 32.77C32.834 31.744 31.1645 31.744 30.14 32.77L26 36.9085V22.75C26 22.336 26.336 22 26.75 22Z" fill="#4C6789"></path></svg>