<svg xmlns="http://www.w3.org/2000/svg" width="116" height="47" viewBox="0 0 116 47" fill="none"><path d="M1.11798 23V22.4741L2.50435 22.1634C2.85493 22.0837 3.11786 21.9722 3.29315 21.8288C3.48437 21.6694 3.63576 21.4622 3.7473 21.2073L8.6235 9.66218L7.88251 7.82166C8.39243 7.80572 8.82269 7.71011 9.17326 7.53482C9.52384 7.3436 9.78677 7.13644 9.96206 6.91335C10.1373 6.67432 10.225 6.47513 10.225 6.31577H10.5596L16.8222 21.518C16.9019 21.7092 17.0294 21.8527 17.2046 21.9483C17.3799 22.0439 17.6588 22.1315 18.0412 22.2112L19.2603 22.4741V23H10.8943V22.4741L12.1133 22.2112C12.4639 22.1315 12.7189 22.0359 12.8782 21.9244C13.0535 21.7969 13.1411 21.6296 13.1411 21.4224C13.1411 21.3427 13.1252 21.2631 13.0933 21.1834C13.0774 21.1037 13.0535 21.0161 13.0216 20.9204L8.76691 10.2598H9.29278L4.65561 21.2312C4.63968 21.279 4.62374 21.3268 4.60781 21.3746C4.60781 21.4224 4.60781 21.4622 4.60781 21.4941C4.60781 21.6375 4.66358 21.765 4.77513 21.8766C4.88668 21.9881 5.06993 22.0678 5.3249 22.1156L7.38055 22.4741V23H1.11798ZM6.1615 17.5979V16.8091H12.9738V17.5979H6.1615ZM26.9023 23V22.4741L28.1214 22.2112C28.6791 22.0837 29.0297 21.9403 29.1731 21.781C29.3324 21.6216 29.4121 21.2949 29.4121 20.8009V9.11241C29.4121 8.60249 29.3324 8.26784 29.1731 8.10849C29.0297 7.94914 28.6791 7.81369 28.1214 7.70214L26.9023 7.43921V6.91335H35.7464C36.8459 6.91335 37.802 7.0727 38.6147 7.3914C39.4274 7.69418 40.0569 8.12443 40.5031 8.68216C40.9652 9.2399 41.1962 9.89324 41.1962 10.6422C41.1962 11.6461 40.8536 12.419 40.1684 12.9608C39.4991 13.5026 38.6068 13.8532 37.4913 14.0125V14.0603C38.2721 14.1081 39.0131 14.2993 39.7143 14.634C40.4154 14.9686 40.9811 15.4387 41.4114 16.0443C41.8576 16.6339 42.0806 17.335 42.0806 18.1477C42.0806 19.3429 41.7699 20.299 41.1484 21.0161C40.527 21.7172 39.6983 22.2271 38.6625 22.5458C37.6427 22.8486 36.5113 23 35.2683 23H26.9023ZM34.1688 22.2112H34.8142C35.5313 22.2112 36.1448 22.0439 36.6547 21.7092C37.1646 21.3587 37.555 20.8806 37.8259 20.2751C38.1128 19.6536 38.2562 18.9445 38.2562 18.1477C38.2562 17.3828 38.1367 16.7374 37.8976 16.2116C37.6586 15.6698 37.2762 15.2634 36.7503 14.9925C36.2404 14.7057 35.5631 14.5623 34.7186 14.5623H32.7585V20.8965C32.7585 21.4224 32.8541 21.773 33.0453 21.9483C33.2525 22.1236 33.627 22.2112 34.1688 22.2112ZM32.7585 13.7735H34.8859C35.7304 13.7735 36.3838 13.4627 36.8459 12.8413C37.324 12.2198 37.563 11.4947 37.563 10.6661C37.563 9.77373 37.2762 9.05664 36.7025 8.51484C36.1448 7.97304 35.3639 7.70214 34.36 7.70214H32.7585V13.7735ZM43.9891 23V22.4741L45.2082 22.2112C45.7659 22.0837 46.1165 21.9403 46.2599 21.781C46.4193 21.6216 46.4989 21.2949 46.4989 20.8009V9.11241C46.4989 8.60249 46.4193 8.26784 46.2599 8.10849C46.1165 7.94914 45.7659 7.81369 45.2082 7.70214L43.9891 7.43921V6.91335H52.3552V7.43921L51.1361 7.70214C50.5943 7.81369 50.2437 7.94914 50.0844 8.10849C49.925 8.26784 49.8454 8.60249 49.8454 9.11241V20.8009C49.8454 21.2949 49.925 21.6216 50.0844 21.781C50.2437 21.9403 50.5943 22.0837 51.1361 22.2112L52.3552 22.4741V23H43.9891ZM46.6663 5.43137L46.4033 4.9055L50.2039 2.46741C50.6182 2.18057 51.0246 2.11683 51.4229 2.27618C51.7257 2.38773 51.9249 2.57895 52.0205 2.84985C52.1161 3.10482 52.1161 3.35181 52.0205 3.59084C51.9568 3.7502 51.8452 3.90158 51.6859 4.045C51.5425 4.18842 51.3512 4.28403 51.1122 4.33183L46.6663 5.43137ZM53.7931 23V22.4741L55.0121 22.2112C55.5699 22.0837 55.9204 21.9403 56.0638 21.781C56.2232 21.6216 56.3029 21.2949 56.3029 20.8009V9.11241C56.3029 8.60249 56.2232 8.26784 56.0638 8.10849C55.9204 7.94914 55.5699 7.81369 55.0121 7.70214L53.7931 7.43921V6.91335H62.6371C63.7367 6.91335 64.6928 7.0727 65.5055 7.3914C66.3182 7.69418 66.9476 8.12443 67.3938 8.68216C67.8559 9.2399 68.087 9.89324 68.087 10.6422C68.087 11.6461 67.7444 12.419 67.0592 12.9608C66.3899 13.5026 65.4975 13.8532 64.3821 14.0125V14.0603C65.1629 14.1081 65.9039 14.2993 66.605 14.634C67.3062 14.9686 67.8719 15.4387 68.3021 16.0443C68.7483 16.6339 68.9714 17.335 68.9714 18.1477C68.9714 19.3429 68.6607 20.299 68.0392 21.0161C67.4177 21.7172 66.5891 22.2271 65.5533 22.5458C64.5334 22.8486 63.402 23 62.1591 23H53.7931ZM61.0596 22.2112H61.7049C62.422 22.2112 63.0355 22.0439 63.5455 21.7092C64.0554 21.3587 64.4458 20.8806 64.7167 20.2751C65.0035 19.6536 65.1469 18.9445 65.1469 18.1477C65.1469 17.3828 65.0274 16.7374 64.7884 16.2116C64.5494 15.6698 64.1669 15.2634 63.6411 14.9925C63.1311 14.7057 62.4539 14.5623 61.6093 14.5623H59.6493V20.8965C59.6493 21.4224 59.7449 21.773 59.9361 21.9483C60.1433 22.1236 60.5178 22.2112 61.0596 22.2112ZM59.6493 13.7735H61.7766C62.6212 13.7735 63.2746 13.4627 63.7367 12.8413C64.2147 12.2198 64.4538 11.4947 64.4538 10.6661C64.4538 9.77373 64.1669 9.05664 63.5933 8.51484C63.0355 7.97304 62.2547 7.70214 61.2508 7.70214H59.6493V13.7735ZM70.8799 23V22.4741L72.099 22.2112C72.6567 22.0837 73.0073 21.9403 73.1507 21.781C73.31 21.6216 73.3897 21.2949 73.3897 20.8009V9.11241C73.3897 8.60249 73.31 8.26784 73.1507 8.10849C73.0073 7.94914 72.6567 7.81369 72.099 7.70214L70.8799 7.43921V6.91335H79.2459V7.43921L78.0269 7.70214C77.4851 7.81369 77.1345 7.94914 76.9752 8.10849C76.8158 8.26784 76.7361 8.60249 76.7361 9.11241V20.8009C76.7361 21.2312 76.8477 21.5738 77.0708 21.8288C77.3098 22.0837 77.748 22.2112 78.3854 22.2112H81.3972C82.0027 22.2112 82.5366 22.1395 82.9987 21.9961C83.4608 21.8367 83.8672 21.6057 84.2177 21.3029C84.5683 20.9842 84.879 20.5938 85.1499 20.1317L86.2734 18.2911H86.7992C86.6399 18.9923 86.4805 19.7731 86.3212 20.6336C86.1778 21.4782 86.1061 22.267 86.1061 23H70.8799ZM87.64 23V22.4741L88.859 22.2112C89.4167 22.0837 89.7673 21.9403 89.9107 21.781C90.0701 21.6216 90.1498 21.2949 90.1498 20.8009V9.11241C90.1498 8.60249 90.0701 8.26784 89.9107 8.10849C89.7673 7.94914 89.4167 7.81369 88.859 7.70214L87.64 7.43921V6.91335H96.006V7.43921L94.7869 7.70214C94.2451 7.81369 93.8945 7.94914 93.7352 8.10849C93.5758 8.26784 93.4962 8.60249 93.4962 9.11241V20.8009C93.4962 21.2949 93.5758 21.6216 93.7352 21.781C93.8945 21.9403 94.2451 22.0837 94.7869 22.2112L96.006 22.4741V23H87.64ZM96.8463 23V22.4741L98.2327 22.1634C98.5833 22.0837 98.8462 21.9722 99.0215 21.8288C99.2127 21.6694 99.3641 21.4622 99.4756 21.2073L104.352 9.66218L103.611 7.82166C104.121 7.80572 104.551 7.71011 104.902 7.53482C105.252 7.3436 105.515 7.13644 105.69 6.91335C105.866 6.67432 105.953 6.47513 105.953 6.31577H106.288L112.551 21.518C112.63 21.7092 112.758 21.8527 112.933 21.9483C113.108 22.0439 113.387 22.1315 113.77 22.2112L114.989 22.4741V23H106.623V22.4741L107.842 22.2112C108.192 22.1315 108.447 22.0359 108.607 21.9244C108.782 21.7969 108.869 21.6296 108.869 21.4224C108.869 21.3427 108.854 21.2631 108.822 21.1834C108.806 21.1037 108.782 21.0161 108.75 20.9204L104.495 10.2598H105.021L100.384 21.2312C100.368 21.279 100.352 21.3268 100.336 21.3746C100.336 21.4224 100.336 21.4622 100.336 21.4941C100.336 21.6375 100.392 21.765 100.503 21.8766C100.615 21.9881 100.798 22.0678 101.053 22.1156L103.109 22.4741V23H96.8463ZM101.89 17.5979V16.8091H108.702V17.5979H101.89Z" fill="#2A394C"></path><path d="M1.10041 41.6553V41.3207L2.23426 41.1162C2.74233 41.0171 3.06452 40.9056 3.20083 40.7816C3.34954 40.6577 3.42389 40.4037 3.42389 40.0195V30.7814C3.42389 30.3848 3.34954 30.1246 3.20083 30.0007C3.06452 29.8768 2.74233 29.7714 2.23426 29.6847L1.10041 29.4802V29.1457H11.6769C11.6397 29.3191 11.6087 29.4926 11.584 29.6661C11.5716 29.8396 11.5654 30.0131 11.5654 30.1866C11.5654 30.6451 11.6025 31.0726 11.6769 31.4691C11.7636 31.8533 11.8256 32.1755 11.8628 32.4357H11.491C11.3051 31.8905 11.0883 31.4072 10.8404 30.9858C10.605 30.5521 10.289 30.2114 9.89246 29.9635C9.49592 29.7157 8.98165 29.5918 8.34967 29.5918H5.11538V34.7964H8.07085C8.71523 34.7964 9.14275 34.6848 9.35341 34.4618C9.57646 34.2387 9.73756 33.867 9.83669 33.3465L10.004 32.4729H10.3386V37.6403H10.004L9.83669 36.7667C9.73756 36.2462 9.57646 35.8745 9.35341 35.6514C9.14275 35.4283 8.71523 35.3168 8.07085 35.3168H5.11538V39.9824C5.11538 40.2798 5.15256 40.5214 5.22691 40.7073C5.30126 40.8808 5.44377 41.0047 5.65443 41.0791C5.86509 41.1534 6.16869 41.1906 6.56523 41.1906H8.27531C8.78338 41.1906 9.25427 41.0914 9.68799 40.8932C10.1217 40.6949 10.4935 40.4471 10.8033 40.1497C11.1255 39.8399 11.3609 39.5425 11.5096 39.2574L11.9929 38.3095H12.3461C12.185 38.8795 12.0672 39.4619 11.9929 40.0567C11.9185 40.6391 11.8752 41.172 11.8628 41.6553H1.10041ZM21.5576 41.8226L17.0036 30.8743L16.5761 40.001C16.5637 40.3851 16.6319 40.6391 16.7806 40.7631C16.9293 40.887 17.2576 40.9985 17.7657 41.0976L18.9182 41.3207V41.6553H13.7322V41.3207L14.866 41.0976C15.213 41.0233 15.467 40.9551 15.6281 40.8932C15.7892 40.8188 15.8945 40.7197 15.9441 40.5958C16.0061 40.4595 16.0432 40.2612 16.0556 40.001L16.446 30.8929C16.4708 30.4964 16.4026 30.2114 16.2415 30.0379C16.0804 29.8644 15.752 29.7281 15.2564 29.6289L14.4757 29.4802V29.1457H18.0445L22.1896 38.8299L26.2418 29.1457H30.0337V29.4802L28.9184 29.6661C28.4228 29.7529 28.0944 29.8768 27.9333 30.0379C27.7846 30.199 27.7164 30.4902 27.7288 30.9115L27.9704 40.0195C27.9828 40.2798 28.0138 40.478 28.0634 40.6144C28.113 40.7507 28.2245 40.856 28.398 40.9303C28.5715 40.9923 28.8255 41.0543 29.1601 41.1162L30.2939 41.3207V41.6553H24.3458V41.3207L25.647 41.0791C25.8948 41.0295 26.0559 40.9613 26.1302 40.8746C26.2046 40.7878 26.2418 40.6453 26.2418 40.4471L26.0559 31.2275L21.6878 41.8226H21.5576ZM44.3386 41.8226L39.7846 30.8743L39.3571 40.001C39.3447 40.3851 39.4129 40.6391 39.5616 40.7631C39.7103 40.887 40.0387 40.9985 40.5467 41.0976L41.6992 41.3207V41.6553H36.5132V41.3207L37.647 41.0976C37.994 41.0233 38.248 40.9551 38.4091 40.8932C38.5702 40.8188 38.6755 40.7197 38.7251 40.5958C38.7871 40.4595 38.8242 40.2612 38.8366 40.001L39.227 30.8929C39.2518 30.4964 39.1836 30.2114 39.0225 30.0379C38.8614 29.8644 38.533 29.7281 38.0374 29.6289L37.2567 29.4802V29.1457H40.8255L44.9706 38.8299L49.0228 29.1457H52.8147V29.4802L51.6994 29.6661C51.2038 29.7529 50.8754 29.8768 50.7143 30.0379C50.5656 30.199 50.4974 30.4902 50.5098 30.9115L50.7514 40.0195C50.7638 40.2798 50.7948 40.478 50.8444 40.6144C50.894 40.7507 51.0055 40.856 51.179 40.9303C51.3525 40.9923 51.6065 41.0543 51.9411 41.1162L53.0749 41.3207V41.6553H47.1268V41.3207L48.428 41.0791C48.6758 41.0295 48.8369 40.9613 48.9113 40.8746C48.9856 40.7878 49.0228 40.6453 49.0228 40.4471L48.8369 31.2275L44.4688 41.8226H44.3386ZM61.0851 41.8783C60.4408 41.8783 59.8397 41.7792 59.2821 41.5809C58.7245 41.3703 58.235 41.0729 57.8137 40.6887C57.4047 40.2922 57.0825 39.8151 56.8471 39.2574C56.624 38.6998 56.5125 38.0678 56.5125 37.3615V30.7814C56.5125 30.3848 56.4382 30.1246 56.2895 30.0007C56.1532 29.8768 55.831 29.7714 55.3229 29.6847L54.189 29.4802V29.1457H60.5089V29.4802L59.375 29.6847C58.867 29.7714 58.5386 29.8768 58.3899 30.0007C58.2536 30.1246 58.1854 30.3848 58.1854 30.7814V37.3429C58.1854 38.5077 58.4952 39.4061 59.1148 40.0381C59.7468 40.6577 60.5833 40.9675 61.6242 40.9675C62.3801 40.9675 63.0121 40.8188 63.5201 40.5214C64.0406 40.224 64.4371 39.8027 64.7098 39.2574C64.9824 38.6998 65.1187 38.0368 65.1187 37.2685V30.9115C65.1187 30.515 65.0443 30.2361 64.8956 30.075C64.7593 29.9016 64.4371 29.7714 63.9291 29.6847L62.7952 29.4802V29.1457H67.9812V29.4802L66.8474 29.6847C66.3393 29.7714 66.0109 29.8892 65.8622 30.0379C65.7259 30.1866 65.6577 30.4592 65.6577 30.8557V39.6106C65.4099 39.6106 65.193 39.6974 65.0072 39.8708C64.8213 40.0443 64.6106 40.2488 64.3752 40.4842C64.1769 40.6949 63.9353 40.9118 63.6503 41.1348C63.3776 41.3455 63.0307 41.519 62.6093 41.6553C62.2004 41.804 61.6923 41.8783 61.0851 41.8783ZM60.007 27.9932L59.8026 27.6029L62.9439 25.6511C63.105 25.552 63.2847 25.5334 63.483 25.5954C63.6564 25.6449 63.7742 25.7503 63.8361 25.9114C63.9105 26.0725 63.9167 26.2336 63.8547 26.3947C63.8052 26.5557 63.7246 26.6611 63.6131 26.7106C63.5139 26.7602 63.421 26.7974 63.3343 26.8222L60.007 27.9932ZM73.7991 41.804C72.7829 41.804 71.9093 41.6739 71.1782 41.4136C70.4595 41.141 69.8894 40.8932 69.4681 40.6701C69.5672 40.1249 69.6106 39.5734 69.5982 39.0158C69.5982 38.4458 69.5239 37.8695 69.3752 37.2871H69.9142C70.0133 38.0554 70.224 38.7494 70.5462 39.369C70.8808 39.9762 71.3269 40.4595 71.8845 40.8188C72.4422 41.1782 73.1175 41.3579 73.9106 41.3579C74.4434 41.3579 74.9143 41.2587 75.3233 41.0605C75.7446 40.8498 76.073 40.5648 76.3084 40.2054C76.5563 39.8461 76.6802 39.4309 76.6802 38.96C76.6802 38.4768 76.5811 38.0802 76.3828 37.7704C76.1969 37.4482 75.8623 37.157 75.379 36.8968C74.8958 36.6242 74.2018 36.333 73.2972 36.0232C72.1943 35.639 71.3393 35.1929 70.7321 34.6848C70.1373 34.1644 69.8399 33.4271 69.8399 32.4729C69.8399 31.8409 69.9886 31.2585 70.286 30.7256C70.5834 30.1804 71.0295 29.7467 71.6243 29.4245C72.2191 29.0899 72.9564 28.9226 73.8362 28.9226C74.2204 28.9226 74.5488 28.9722 74.8214 29.0713C75.094 29.1704 75.3481 29.2758 75.5835 29.3873C75.7694 29.474 75.9491 29.5546 76.1226 29.6289C76.296 29.7033 76.4695 29.7405 76.643 29.7405L77.1077 29.6475L77.1821 29.7033C77.1697 29.8644 77.1573 30.0193 77.1449 30.168C77.1325 30.3167 77.1263 30.4654 77.1263 30.6141C77.1263 30.8743 77.1387 31.1346 77.1635 31.3948C77.1883 31.6426 77.2254 31.8905 77.275 32.1383C77.3246 32.3861 77.3803 32.634 77.4423 32.8818H77.0334C76.7855 32.2374 76.5191 31.655 76.2341 31.1346C75.9491 30.6017 75.5959 30.1804 75.1746 29.8706C74.7656 29.5484 74.239 29.3873 73.5946 29.3873C73.1857 29.3873 72.8015 29.474 72.4422 29.6475C72.0828 29.821 71.7916 30.075 71.5685 30.4096C71.3455 30.7442 71.2339 31.1531 71.2339 31.6364C71.2339 32.1073 71.3145 32.4977 71.4756 32.8075C71.6367 33.1049 71.9403 33.3775 72.3864 33.6253C72.8449 33.8608 73.5141 34.1334 74.3939 34.4432C75.3109 34.753 76.0358 35.0814 76.5687 35.4283C77.1015 35.7629 77.4795 36.1471 77.7025 36.5808C77.938 37.0145 78.0557 37.5412 78.0557 38.1608C78.0557 38.8423 77.876 39.4619 77.5166 40.0195C77.1573 40.5648 76.6554 40.9985 76.011 41.3207C75.379 41.6429 74.6417 41.804 73.7991 41.804ZM79.7357 41.6553V41.3207L80.8696 41.1162C81.3776 41.0171 81.6998 40.9056 81.8361 40.7816C81.9848 40.6577 82.0592 40.4037 82.0592 40.0195V30.7814C82.0592 30.3848 81.9848 30.1246 81.8361 30.0007C81.6998 29.8768 81.3776 29.7714 80.8696 29.6847L79.7357 29.4802V29.1457H86.0556V29.4802L84.9217 29.6847C84.4137 29.7714 84.0853 29.8768 83.9366 30.0007C83.8003 30.1246 83.7321 30.3848 83.7321 30.7814V40.0195C83.7321 40.4037 83.8003 40.6577 83.9366 40.7816C84.0853 40.9056 84.4137 41.0171 84.9217 41.1162L86.0556 41.3207V41.6553H79.7357ZM94.2328 41.8783C93.2538 41.8783 92.3616 41.7172 91.5561 41.395C90.7507 41.0605 90.0505 40.5958 89.4557 40.001C88.8733 39.4061 88.421 38.7184 88.0988 37.9377C87.789 37.1446 87.6341 36.2958 87.6341 35.3912C87.6341 34.437 87.8076 33.5696 88.1546 32.7889C88.5139 31.9958 88.9972 31.3204 89.6044 30.7628C90.224 30.1928 90.9241 29.7591 91.7048 29.4616C92.4855 29.1518 93.3034 28.9969 94.1584 28.9969C94.84 28.9969 95.4038 29.0527 95.8499 29.1642C96.296 29.2634 96.6864 29.3687 97.021 29.4802C97.2812 29.567 97.5166 29.6475 97.7273 29.7219C97.9503 29.7838 98.1796 29.8148 98.415 29.8148C98.5514 29.8148 98.6691 29.8024 98.7682 29.7776C98.8673 29.7529 98.9789 29.7343 99.1028 29.7219L99.14 29.7591C99.0904 30.0565 99.0656 30.4592 99.0656 30.9673C99.078 31.4753 99.1833 32.1383 99.3816 32.9562H99.0099C98.8116 32.4357 98.4894 31.909 98.0433 31.3762C97.6096 30.831 97.0705 30.3786 96.4261 30.0193C95.7818 29.6475 95.0506 29.4616 94.2328 29.4616C93.3777 29.4616 92.5847 29.7157 91.8535 30.2237C91.1348 30.7194 90.5524 31.4134 90.1063 32.3056C89.6726 33.1854 89.4557 34.2015 89.4557 35.354C89.4557 36.5064 89.6602 37.5412 90.0691 38.4582C90.4904 39.3752 91.0605 40.1001 91.7792 40.6329C92.5103 41.1658 93.3344 41.4322 94.2514 41.4322C94.5116 41.4322 94.8524 41.395 95.2737 41.3207C95.695 41.2339 96.1411 41.0729 96.612 40.8374C97.0953 40.602 97.5538 40.2426 97.9875 39.7593C98.4212 39.276 98.7806 38.6378 99.0656 37.8448H99.4374C99.3135 38.4396 99.2019 39.022 99.1028 39.592C99.0037 40.162 98.9541 40.6949 98.9541 41.1906H98.7682C98.508 41.1906 98.2044 41.2216 97.8574 41.2835C97.5228 41.3455 97.1511 41.4198 96.7421 41.5066C96.3208 41.5933 95.8871 41.6739 95.441 41.7482C94.9949 41.835 94.5921 41.8783 94.2328 41.8783ZM100.559 41.6553V41.3207L101.433 41.172C101.854 41.0976 102.176 40.9799 102.399 40.8188C102.622 40.6453 102.796 40.4037 102.92 40.0939L106.693 30.8743L106.303 29.852C106.563 29.8396 106.78 29.7652 106.953 29.6289C107.127 29.4802 107.257 29.3191 107.344 29.1457C107.43 28.9598 107.474 28.8049 107.474 28.681H107.641L112.177 39.6664C112.4 40.2116 112.629 40.5834 112.864 40.7816C113.112 40.9675 113.428 41.0976 113.812 41.172L114.556 41.3207V41.6553H108.44V41.3207L109.444 41.1534C109.841 41.0914 110.113 41.0171 110.262 40.9303C110.411 40.8436 110.485 40.7259 110.485 40.5772C110.485 40.478 110.46 40.3603 110.411 40.224C110.361 40.0877 110.305 39.9328 110.243 39.7593L106.842 31.1717H107.269L103.57 40.1311C103.533 40.2178 103.502 40.3046 103.477 40.3913C103.453 40.4657 103.44 40.5338 103.44 40.5958C103.44 40.7445 103.496 40.856 103.608 40.9303C103.732 41.0047 103.905 41.0605 104.128 41.0976L105.336 41.3207V41.6553H100.559ZM104.686 37.3987L104.556 36.8038H110.002V37.3987H104.686Z" fill="#2A394C"></path></svg>